<?xml version="1.0" encoding="UTF-8" standalone="no"?>
<svg width="370.064mm" height="53.6222mm"
 xmlns="http://www.w3.org/2000/svg" xmlns:xlink="http://www.w3.org/1999/xlink"  version="1.2" baseProfile="tiny">
<title>Qt SVG Document</title>
<desc>Generated with Qt</desc>
<defs>
</defs>
<g fill="none" stroke="black" stroke-width="1" fill-rule="evenodd" stroke-linecap="square" stroke-linejoin="bevel" >

<g fill="none" stroke="#000000" stroke-opacity="1" stroke-width="1" stroke-linecap="square" stroke-linejoin="bevel" transform="matrix(1,0,0,1,0,0)"
font-family="Sans Serif" font-size="9" font-weight="400" font-style="normal" 
>
</g>

<g fill="none" stroke="#000000" stroke-opacity="1" stroke-width="1" stroke-linecap="square" stroke-linejoin="bevel" transform="matrix(1,0,0,1,0,0)"
font-family="Sans Serif" font-size="9" font-weight="400" font-style="normal" 
>
</g>

<g fill="none" stroke="#000000" stroke-opacity="1" stroke-width="1" stroke-linecap="square" stroke-linejoin="bevel" transform="matrix(2,0,0,2,0.0024,167)"
font-family="Sans Serif" font-size="9" font-weight="400" font-style="normal" 
>
</g>

<g fill="#ffffff" fill-opacity="1" stroke="none" transform="matrix(2,0,0,2,0.0024,167)"
font-family="Sans Serif" font-size="9" font-weight="400" font-style="normal" 
>
<rect x="-0.0012" y="-83.5" width="524.366" height="76"/>
</g>

<g fill="none" stroke="#000000" stroke-opacity="1" stroke-width="1" stroke-linecap="square" stroke-linejoin="bevel" transform="matrix(2,0,0,2,0.0024,167)"
font-family="Sans Serif" font-size="9" font-weight="400" font-style="normal" 
>
</g>

<g fill="none" stroke="#000000" stroke-opacity="1" stroke-width="1" stroke-linecap="square" stroke-linejoin="bevel" transform="matrix(2,0,0,2,0.0024,167)"
font-family="Sans Serif" font-size="9" font-weight="400" font-style="normal" 
>
</g>

<g fill="none" stroke="#000000" stroke-opacity="1" stroke-width="1" stroke-linecap="square" stroke-linejoin="bevel" transform="matrix(2,0,0,2,0.0024,167)"
font-family="Sans Serif" font-size="9" font-weight="400" font-style="normal" 
>
</g>

<g fill="none" stroke="#000000" stroke-opacity="1" stroke-width="1" stroke-linecap="square" stroke-linejoin="bevel" transform="matrix(2,0,0,2,0.0024,167)"
font-family="Sans Serif" font-size="9" font-weight="400" font-style="normal" 
>
</g>

<g fill="none" stroke="#000000" stroke-opacity="1" stroke-width="1" stroke-linecap="square" stroke-linejoin="round" transform="matrix(2,0,0,2,0.0024,167)"
font-family="Sans Serif" font-size="9" font-weight="400" font-style="normal" 
>
<rect x="249.18" y="-51.5" width="117.001" height="35"/>
</g>

<g fill="none" stroke="#000000" stroke-opacity="1" stroke-width="1" stroke-linecap="square" stroke-linejoin="bevel" transform="matrix(2,0,0,2,0.0024,167)"
font-family="Sans Serif" font-size="9" font-weight="400" font-style="normal" 
>
</g>

<g fill="none" stroke="#000000" stroke-opacity="1" stroke-width="1" stroke-linecap="square" stroke-linejoin="bevel" transform="matrix(2,0,0,2,515.3,86)"
font-family="Sans Serif" font-size="9" font-weight="400" font-style="normal" 
>
</g>

<g fill="none" stroke="#000000" stroke-opacity="1" stroke-width="1" stroke-linecap="square" stroke-linejoin="bevel" transform="matrix(2,0,0,2,515.3,86)"
font-family="sans" font-size="11" font-weight="100" font-style="normal" 
>
</g>

<g fill="#000000" fill-opacity="1" stroke="#000000" stroke-opacity="1" stroke-width="1" stroke-linecap="square" stroke-linejoin="round" transform="matrix(2,0,0,2,515.3,86)"
font-family="sans" font-size="11" font-weight="100" font-style="normal" 
>
<path vector-effect="none" fill-rule="nonzero" d="M2.96875,1.98438 L3.53125,1.98438 L0.734375,11.0156 L0.171875,11.0156 L2.96875,1.98438 M9.28125,5.29688 C9.46875,4.80729 9.76042,4.44271 10.1562,4.20312 C10.5417,3.96354 10.9948,3.84375 11.5156,3.84375 C12.0365,3.84375 12.4531,4.02604 12.7656,4.39062 C13.0885,4.75521 13.25,5.41667 13.25,6.375 L13.25,10 L12.7656,10 L12.7656,6.40625 C12.7656,5.57292 12.651,5.01042 12.4219,4.71875 C12.1927,4.42708 11.8854,4.28125 11.5,4.28125 C10.9479,4.28125 10.4635,4.44792 10.0469,4.78125 C9.57812,5.15625 9.34375,5.76042 9.34375,6.59375 L9.34375,10 L8.85938,10 L8.85938,6.40625 C8.85938,5.60417 8.7474,5.04948 8.52344,4.74219 C8.29948,4.4349 7.98958,4.28125 7.59375,4.28125 C7.04167,4.28125 6.55729,4.45312 6.14062,4.79688 C5.67188,5.16146 5.4375,5.76042 5.4375,6.59375 L5.4375,10 L4.95312,10 L4.95312,3.98438 L5.4375,3.98438 L5.4375,5.10938 C5.61458,4.71354 5.89062,4.40104 6.26562,4.17188 C6.63021,3.95312 7.08333,3.84375 7.625,3.84375 C7.97917,3.84375 8.31771,3.95833 8.64062,4.1875 C8.89062,4.375 9.10417,4.74479 9.28125,5.29688 M17.6875,10.5625 C17.4688,11.0938 17.2344,11.4635 16.9844,11.6719 C16.651,11.9427 16.3281,12.0781 16.0156,12.0781 L15.2812,12.0781 L15.2812,11.6562 L15.9062,11.6562 C16.1667,11.6562 16.3958,11.5729 16.5938,11.4062 C16.8438,11.1875 17.0521,10.8698 17.2188,10.4531 L17.3906,10 L15,3.98438 L15.5312,3.98438 L17.6562,9.34375 L19.7969,3.98438 L20.3281,3.98438 L17.6875,10.5625 M22.6719,2.28125 L22.6719,3.98438 L24.7031,3.98438 L24.7031,4.40625 L22.6719,4.40625 L22.6719,8.01562 C22.6719,8.47396 22.7292,8.79688 22.8438,8.98438 C23.0938,9.38021 23.4531,9.57812 23.9219,9.57812 L24.7031,9.57812 L24.7031,10 L23.9375,10 C23.4479,10 23.0312,9.85677 22.6875,9.57031 C22.3438,9.28385 22.1719,8.76562 22.1719,8.01562 L22.1719,4.40625 L21.4531,4.40625 L21.4531,3.98438 L22.1719,3.98438 L22.1719,2.28125 L22.6719,2.28125 M26.4062,7.60938 L26.4062,3.98438 L26.8906,3.98438 L26.8906,7.57812 C26.8906,8.35938 27.0156,8.90885 27.2656,9.22656 C27.5156,9.54427 27.8854,9.70312 28.375,9.70312 C28.9479,9.70312 29.4375,9.53125 29.8438,9.1875 C30.25,8.84375 30.4531,8.24479 30.4531,7.39062 L30.4531,3.98438 L30.9375,3.98438 L30.9375,10 L30.4531,10 L30.4531,8.875 C30.276,9.23958 30.0417,9.51562 29.75,9.70312 C29.3333,9.99479 28.8698,10.1406 28.3594,10.1406 C27.7656,10.1406 27.2917,9.9375 26.9375,9.53125 C26.5833,9.13542 26.4062,8.49479 26.4062,7.60938 M36.7031,4.40625 C36.6198,4.36458 36.5104,4.33333 36.375,4.3125 C36.25,4.29167 36.099,4.28125 35.9219,4.28125 C35.3073,4.28125 34.8021,4.50521 34.4062,4.95312 C34.0833,5.31771 33.9219,5.94271 33.9219,6.82812 L33.9219,10 L33.4375,10 L33.4375,3.98438 L33.9219,3.98438 L33.9219,5.10938 C34.0885,4.78646 34.3177,4.51562 34.6094,4.29688 C35.0052,3.99479 35.474,3.84375 36.0156,3.84375 C36.1615,3.84375 36.2865,3.84896 36.3906,3.85938 C36.4948,3.85938 36.599,3.86979 36.7031,3.89062 L36.7031,4.40625 M38.4688,2.28125 L38.4688,3.98438 L40.5,3.98438 L40.5,4.40625 L38.4688,4.40625 L38.4688,8.01562 C38.4688,8.47396 38.526,8.79688 38.6406,8.98438 C38.8906,9.38021 39.25,9.57812 39.7188,9.57812 L40.5,9.57812 L40.5,10 L39.7344,10 C39.2448,10 38.8281,9.85677 38.4844,9.57031 C38.1406,9.28385 37.9688,8.76562 37.9688,8.01562 L37.9688,4.40625 L37.25,4.40625 L37.25,3.98438 L37.9688,3.98438 L37.9688,2.28125 L38.4688,2.28125 M42.2656,1.64062 L42.75,1.64062 L42.75,10 L42.2656,10 L42.2656,1.64062 M50,6.75 L50,7.0625 L45.4375,7.0625 C45.4375,8.02083 45.625,8.69792 46,9.09375 C46.4167,9.52083 47.0312,9.73438 47.8438,9.73438 C48.0625,9.73438 48.349,9.6875 48.7031,9.59375 C49.0573,9.5 49.4115,9.35938 49.7656,9.17188 L49.7656,9.6875 C49.4115,9.84375 49.0495,9.96094 48.6797,10.0391 C48.3099,10.1172 48.0156,10.1562 47.7969,10.1562 C46.8698,10.1562 46.1719,9.90625 45.7031,9.40625 C45.1927,8.875 44.9375,8.09375 44.9375,7.0625 C44.9375,5.98958 45.1667,5.1875 45.625,4.65625 C46.1042,4.11458 46.7708,3.84375 47.625,3.84375 C48.4062,3.84375 49,4.10417 49.4062,4.625 C49.8021,5.16667 50,5.875 50,6.75 M49.5,6.64062 C49.5,5.79688 49.3073,5.18229 48.9219,4.79688 C48.6094,4.45312 48.1771,4.28125 47.625,4.28125 C47.0312,4.28125 46.5312,4.45833 46.125,4.8125 C45.75,5.14583 45.526,5.75521 45.4531,6.64062 L49.5,6.64062 M53.7969,1.98438 L54.3594,1.98438 L51.5625,11.0156 L51,11.0156 L53.7969,1.98438 M59.8906,4.28125 L59.8906,4.79688 C59.599,4.61979 59.3542,4.5 59.1562,4.4375 C58.8229,4.33333 58.5052,4.28125 58.2031,4.28125 C57.3385,4.28125 56.7188,4.5026 56.3438,4.94531 C55.9688,5.38802 55.7812,6.07292 55.7812,7 C55.7812,7.9375 55.9688,8.6276 56.3438,9.07031 C56.7188,9.51302 57.3385,9.73438 58.2031,9.73438 C58.4948,9.73438 58.776,9.69271 59.0469,9.60938 C59.3385,9.53646 59.6198,9.42188 59.8906,9.26562 L59.8906,9.76562 C59.6198,9.90104 59.3385,10 59.0469,10.0625 C58.7448,10.125 58.4479,10.1562 58.1562,10.1562 C57.2812,10.1562 56.5833,9.91667 56.0625,9.4375 C55.5417,8.95833 55.2812,8.14323 55.2812,6.99219 C55.2812,5.84115 55.5417,5.02604 56.0625,4.54688 C56.5833,4.07812 57.2812,3.84375 58.1562,3.84375 C58.4479,3.84375 58.7552,3.88542 59.0781,3.96875 C59.401,4.04167 59.6719,4.14583 59.8906,4.28125 M66.1562,5.29688 C66.3438,4.80729 66.6354,4.44271 67.0312,4.20312 C67.4167,3.96354 67.8698,3.84375 68.3906,3.84375 C68.9115,3.84375 69.3281,4.02604 69.6406,4.39062 C69.9635,4.75521 70.125,5.41667 70.125,6.375 L70.125,10 L69.6406,10 L69.6406,6.40625 C69.6406,5.57292 69.526,5.01042 69.2969,4.71875 C69.0677,4.42708 68.7604,4.28125 68.375,4.28125 C67.8229,4.28125 67.3385,4.44792 66.9219,4.78125 C66.4531,5.15625 66.2188,5.76042 66.2188,6.59375 L66.2188,10 L65.7344,10 L65.7344,6.40625 C65.7344,5.60417 65.6224,5.04948 65.3984,4.74219 C65.1745,4.4349 64.8646,4.28125 64.4688,4.28125 C63.9167,4.28125 63.4323,4.45312 63.0156,4.79688 C62.5469,5.16146 62.3125,5.76042 62.3125,6.59375 L62.3125,10 L61.8281,10 L61.8281,3.98438 L62.3125,3.98438 L62.3125,5.10938 C62.4896,4.71354 62.7656,4.40104 63.1406,4.17188 C63.5052,3.95312 63.9583,3.84375 64.5,3.84375 C64.8542,3.84375 65.1927,3.95833 65.5156,4.1875 C65.7656,4.375 65.9792,4.74479 66.1562,5.29688 M76.5312,5.35938 L76.5312,1.64062 L77,1.64062 L77,10 L76.5312,10 L76.5312,8.64062 C76.3021,9.16146 76.0521,9.51562 75.7812,9.70312 C75.3854,10.0052 75.0052,10.1562 74.6406,10.1562 C73.9323,10.1562 73.3411,9.86719 72.8672,9.28906 C72.3932,8.71094 72.1562,7.94792 72.1562,7 C72.1562,6.05208 72.3932,5.28906 72.8672,4.71094 C73.3411,4.13281 73.9323,3.84375 74.6406,3.84375 C75.0052,3.84375 75.3854,3.98958 75.7812,4.28125 C76.0521,4.47917 76.3021,4.83854 76.5312,5.35938 M73.2969,4.90625 C72.8802,5.32292 72.6719,6.02083 72.6719,7 C72.6719,7.97917 72.8802,8.67708 73.2969,9.09375 C73.7135,9.51042 74.151,9.71875 74.6094,9.71875 C75.0573,9.71875 75.4896,9.51042 75.9062,9.09375 C76.3125,8.67708 76.5156,7.97917 76.5156,7 C76.5156,6.02083 76.3125,5.32292 75.9062,4.90625 C75.4896,4.48958 75.0573,4.28125 74.6094,4.28125 C74.151,4.28125 73.7135,4.48958 73.2969,4.90625 M83.8594,12.1719 L83.8594,12.5938 L78.1406,12.5938 L78.1406,12.1719 L83.8594,12.1719 M84.4531,3.98438 L84.9688,3.98438 L87,9.45312 L89.0469,3.98438 L89.5625,3.98438 L87.3281,10 L86.6875,10 L84.4531,3.98438 M96.1875,6.75 L96.1875,7.0625 L91.625,7.0625 C91.625,8.02083 91.8125,8.69792 92.1875,9.09375 C92.6042,9.52083 93.2188,9.73438 94.0312,9.73438 C94.25,9.73438 94.5365,9.6875 94.8906,9.59375 C95.2448,9.5 95.599,9.35938 95.9531,9.17188 L95.9531,9.6875 C95.599,9.84375 95.237,9.96094 94.8672,10.0391 C94.4974,10.1172 94.2031,10.1562 93.9844,10.1562 C93.0573,10.1562 92.3594,9.90625 91.8906,9.40625 C91.3802,8.875 91.125,8.09375 91.125,7.0625 C91.125,5.98958 91.3542,5.1875 91.8125,4.65625 C92.2917,4.11458 92.9583,3.84375 93.8125,3.84375 C94.5938,3.84375 95.1875,4.10417 95.5938,4.625 C95.9896,5.16667 96.1875,5.875 96.1875,6.75 M95.6875,6.64062 C95.6875,5.79688 95.4948,5.18229 95.1094,4.79688 C94.7969,4.45312 94.3646,4.28125 93.8125,4.28125 C93.2188,4.28125 92.7188,4.45833 92.3125,4.8125 C91.9375,5.14583 91.7135,5.75521 91.6406,6.64062 L95.6875,6.64062 M98.2656,1.64062 L98.75,1.64062 L98.75,10 L98.2656,10 L98.2656,1.64062"/>
</g>

<g fill="none" stroke="#000000" stroke-opacity="1" stroke-width="1" stroke-linecap="square" stroke-linejoin="bevel" transform="matrix(2,0,0,2,515.3,86)"
font-family="sans" font-size="11" font-weight="100" font-style="normal" 
>
</g>

<g fill="none" stroke="#000000" stroke-opacity="1" stroke-width="1" stroke-linecap="square" stroke-linejoin="bevel" transform="matrix(2,0,0,2,515.3,86)"
font-family="Sans Serif" font-size="9" font-weight="400" font-style="normal" 
>
</g>

<g fill="none" stroke="#000000" stroke-opacity="1" stroke-width="1" stroke-linecap="square" stroke-linejoin="bevel" transform="matrix(2,0,0,2,0.0024,167)"
font-family="Sans Serif" font-size="9" font-weight="400" font-style="normal" 
>
</g>

<g fill="none" stroke="#000000" stroke-opacity="1" stroke-width="1" stroke-linecap="square" stroke-linejoin="bevel" transform="matrix(2,0,0,2,0.0024,167)"
font-family="Sans Serif" font-size="9" font-weight="400" font-style="normal" 
>
</g>

<g fill="none" stroke="#000000" stroke-opacity="1" stroke-width="1" stroke-linecap="square" stroke-linejoin="bevel" transform="matrix(2,0,0,2,0.0024,167)"
font-family="Sans Serif" font-size="9" font-weight="400" font-style="normal" 
>
</g>

<g fill="none" stroke="#000000" stroke-opacity="1" stroke-width="1" stroke-linecap="square" stroke-linejoin="round" transform="matrix(2,0,0,2,0.0024,167)"
font-family="Sans Serif" font-size="9" font-weight="400" font-style="normal" 
>
<ellipse cx="116.34" cy="-34" rx="115.841" ry="17.5"/>
</g>

<g fill="none" stroke="#000000" stroke-opacity="1" stroke-width="1" stroke-linecap="square" stroke-linejoin="bevel" transform="matrix(2,0,0,2,0.0024,167)"
font-family="Sans Serif" font-size="9" font-weight="400" font-style="normal" 
>
</g>

<g fill="none" stroke="#000000" stroke-opacity="1" stroke-width="1" stroke-linecap="square" stroke-linejoin="bevel" transform="matrix(2,0,0,2,67.5262,86)"
font-family="Sans Serif" font-size="9" font-weight="400" font-style="normal" 
>
</g>

<g fill="none" stroke="#000000" stroke-opacity="1" stroke-width="1" stroke-linecap="square" stroke-linejoin="bevel" transform="matrix(2,0,0,2,67.5262,86)"
font-family="sans" font-size="11" font-weight="100" font-style="normal" 
>
</g>

<g fill="#000000" fill-opacity="1" stroke="#000000" stroke-opacity="1" stroke-width="1" stroke-linecap="square" stroke-linejoin="round" transform="matrix(2,0,0,2,67.5262,86)"
font-family="sans" font-size="11" font-weight="100" font-style="normal" 
>
<path vector-effect="none" fill-rule="nonzero" d="M2.96875,1.98438 L3.53125,1.98438 L0.734375,11.0156 L0.171875,11.0156 L2.96875,1.98438 M5.4375,8.64062 L5.4375,12.2812 L4.95312,12.2812 L4.95312,3.98438 L5.4375,3.98438 L5.4375,5.35938 C5.66667,4.83854 5.91146,4.47917 6.17188,4.28125 C6.57812,3.98958 6.96354,3.84375 7.32812,3.84375 C8.03646,3.84375 8.6276,4.13281 9.10156,4.71094 C9.57552,5.28906 9.8125,6.05208 9.8125,7 C9.8125,7.94792 9.57552,8.71094 9.10156,9.28906 C8.6276,9.86719 8.03646,10.1562 7.32812,10.1562 C6.96354,10.1562 6.57812,10.0052 6.17188,9.70312 C5.91146,9.51562 5.66667,9.16146 5.4375,8.64062 M8.67188,9.09375 C9.08854,8.67708 9.29688,7.97917 9.29688,7 C9.29688,6.02083 9.08854,5.32292 8.67188,4.90625 C8.25521,4.48958 7.81771,4.28125 7.35938,4.28125 C6.91146,4.28125 6.47917,4.48958 6.0625,4.90625 C5.65625,5.32292 5.45312,6.02083 5.45312,7 C5.45312,7.97917 5.65625,8.67708 6.0625,9.09375 C6.47917,9.51042 6.91146,9.71875 7.35938,9.71875 C7.81771,9.71875 8.25521,9.51042 8.67188,9.09375 M11.9219,1.64062 L12.4062,1.64062 L12.4062,10 L11.9219,10 L11.9219,1.64062 M17.375,6.60938 C16.5729,6.60938 15.9974,6.75 15.6484,7.03125 C15.2995,7.3125 15.125,7.72396 15.125,8.26562 C15.125,8.79688 15.2708,9.17448 15.5625,9.39844 C15.8542,9.6224 16.1979,9.73438 16.5938,9.73438 C17.3438,9.73438 17.8854,9.41667 18.2188,8.78125 C18.5521,8.13542 18.7188,7.53125 18.7188,6.96875 L18.7188,6.60938 L17.375,6.60938 M19.2188,6.5625 L19.2188,10 L18.7188,10 L18.7188,8.35938 C18.4479,9.16146 18.0833,9.67188 17.625,9.89062 C17.2708,10.0677 16.9115,10.1562 16.5469,10.1562 C15.9531,10.1562 15.4844,9.99479 15.1406,9.67188 C14.7969,9.34896 14.625,8.8776 14.625,8.25781 C14.625,7.63802 14.849,7.14062 15.2969,6.76562 C15.7448,6.39062 16.474,6.20312 17.4844,6.20312 L18.7188,6.20312 L18.7188,6.10938 C18.7188,5.57812 18.5625,5.14062 18.25,4.79688 C17.9583,4.45312 17.4635,4.28125 16.7656,4.28125 C16.4219,4.28125 16.0729,4.34375 15.7188,4.46875 C15.4896,4.55208 15.1875,4.71875 14.8125,4.96875 L14.8125,4.4375 C15.1354,4.23958 15.4375,4.09896 15.7188,4.01562 C16.1146,3.90104 16.4948,3.84375 16.8594,3.84375 C17.5781,3.84375 18.1667,4.05729 18.625,4.48438 C19.0208,4.84896 19.2188,5.54167 19.2188,6.5625 M23.7344,10.5625 C23.5156,11.0938 23.2812,11.4635 23.0312,11.6719 C22.6979,11.9427 22.375,12.0781 22.0625,12.0781 L21.3281,12.0781 L21.3281,11.6562 L21.9531,11.6562 C22.2135,11.6562 22.4427,11.5729 22.6406,11.4062 C22.8906,11.1875 23.099,10.8698 23.2656,10.4531 L23.4375,10 L21.0469,3.98438 L21.5781,3.98438 L23.7031,9.34375 L25.8438,3.98438 L26.375,3.98438 L23.7344,10.5625 M32.5625,12.1719 L32.5625,12.5938 L26.8438,12.5938 L26.8438,12.1719 L32.5625,12.1719 M34.0938,9.5625 L35.8594,9.5625 L35.8594,2.46875 L33.6562,3.35938 L33.6562,2.85938 L35.8438,1.98438 L36.3906,1.98438 L36.3906,9.5625 L38.1719,9.5625 L38.1719,10 L34.0938,10 L34.0938,9.5625 M40.8438,1.98438 L44.6406,1.98438 L44.6406,2.42188 L41.375,2.42188 L41.375,5.10938 C41.5417,5.04688 41.7031,5 41.8594,4.96875 C42.0156,4.9375 42.2448,4.92188 42.5469,4.92188 C43.3698,4.92188 44.0208,5.15104 44.5,5.60938 C44.9792,6.05729 45.2188,6.66146 45.2188,7.42188 C45.2188,8.28646 44.9688,8.95833 44.4688,9.4375 C43.9792,9.91667 43.2865,10.1562 42.3906,10.1562 C42.099,10.1562 41.7969,10.1302 41.4844,10.0781 C41.1719,10.026 40.849,9.95312 40.5156,9.85938 L40.5156,9.3125 C40.7969,9.4375 41.0885,9.53646 41.3906,9.60938 C41.6927,9.67188 42.0104,9.70312 42.3438,9.70312 C43.0521,9.70312 43.6198,9.5 44.0469,9.09375 C44.474,8.6875 44.6875,8.13021 44.6875,7.42188 C44.6875,6.78646 44.4792,6.28646 44.0625,5.92188 C43.6458,5.54688 43.0833,5.35938 42.375,5.35938 C42.2292,5.35938 42.0104,5.40104 41.7188,5.48438 C41.4375,5.55729 41.1458,5.67708 40.8438,5.84375 L40.8438,1.98438 M47.75,9.5625 L52.3125,9.5625 L52.3125,10 L47.1875,10 L47.1875,9.4375 L49.1875,7.35938 C49.6771,6.85938 50.125,6.39583 50.5312,5.96875 C50.8958,5.57292 51.1406,5.26562 51.2656,5.04688 C51.3906,4.82812 51.4531,4.53646 51.4531,4.17188 C51.4531,3.55729 51.2656,3.0625 50.8906,2.6875 C50.6198,2.41667 50.1771,2.28125 49.5625,2.28125 C49.1979,2.28125 48.7865,2.38542 48.3281,2.59375 C48.1198,2.6875 47.7708,2.89062 47.2812,3.20312 L47.2812,2.64062 C47.4896,2.49479 47.7917,2.32812 48.1875,2.14062 C48.6458,1.94271 49.099,1.83854 49.5469,1.82812 C50.2344,1.82812 50.8125,2.01042 51.2812,2.375 C51.7396,2.72917 51.9688,3.3125 51.9688,4.125 C51.9688,4.45833 51.9062,4.77083 51.7812,5.0625 C51.6354,5.40625 51.4115,5.75521 51.1094,6.10938 C51.0156,6.21354 50.7292,6.51042 50.25,7 L47.75,9.5625 M57.875,5.67188 C58.3021,5.77604 58.6406,6.01042 58.8906,6.375 C59.1302,6.71875 59.25,7.15104 59.25,7.67188 C59.25,8.46354 59.0234,9.07552 58.5703,9.50781 C58.1172,9.9401 57.3906,10.1562 56.3906,10.1562 C56.0469,10.1562 55.6979,10.1042 55.3438,10 C54.9896,9.89583 54.625,9.72917 54.25,9.5 L54.25,8.92188 C54.5521,9.18229 54.8802,9.38021 55.2344,9.51562 C55.5885,9.65104 55.9531,9.71875 56.3281,9.71875 C57.099,9.71875 57.6875,9.54167 58.0938,9.1875 C58.5,8.84375 58.7031,8.33854 58.7031,7.67188 C58.7031,7.13021 58.5156,6.70312 58.1406,6.39062 C57.7656,6.08854 57.2396,5.9375 56.5625,5.9375 L55.625,5.9375 L55.625,5.48438 L56.6094,5.48438 C57.224,5.48438 57.6979,5.35938 58.0312,5.10938 C58.3542,4.85938 58.5156,4.5 58.5156,4.03125 C58.5156,3.46875 58.349,3.03646 58.0156,2.73438 C57.6719,2.43229 57.1875,2.28125 56.5625,2.28125 C56.2708,2.28125 55.9531,2.33333 55.6094,2.4375 C55.2656,2.54167 54.8906,2.70312 54.4844,2.92188 L54.4844,2.375 C54.901,2.19792 55.2865,2.06771 55.6406,1.98438 C56.0052,1.89062 56.3438,1.83854 56.6562,1.82812 C57.4792,1.82812 58.0885,2.01562 58.4844,2.39062 C58.8698,2.76562 59.0625,3.27604 59.0625,3.92188 C59.0625,4.33854 58.9583,4.70833 58.75,5.03125 C58.5521,5.34375 58.2604,5.55729 57.875,5.67188 M64.8594,5.67188 C65.2865,5.77604 65.625,6.01042 65.875,6.375 C66.1146,6.71875 66.2344,7.15104 66.2344,7.67188 C66.2344,8.46354 66.0078,9.07552 65.5547,9.50781 C65.1016,9.9401 64.375,10.1562 63.375,10.1562 C63.0312,10.1562 62.6823,10.1042 62.3281,10 C61.974,9.89583 61.6094,9.72917 61.2344,9.5 L61.2344,8.92188 C61.5365,9.18229 61.8646,9.38021 62.2188,9.51562 C62.5729,9.65104 62.9375,9.71875 63.3125,9.71875 C64.0833,9.71875 64.6719,9.54167 65.0781,9.1875 C65.4844,8.84375 65.6875,8.33854 65.6875,7.67188 C65.6875,7.13021 65.5,6.70312 65.125,6.39062 C64.75,6.08854 64.224,5.9375 63.5469,5.9375 L62.6094,5.9375 L62.6094,5.48438 L63.5938,5.48438 C64.2083,5.48438 64.6823,5.35938 65.0156,5.10938 C65.3385,4.85938 65.5,4.5 65.5,4.03125 C65.5,3.46875 65.3333,3.03646 65,2.73438 C64.6562,2.43229 64.1719,2.28125 63.5469,2.28125 C63.2552,2.28125 62.9375,2.33333 62.5938,2.4375 C62.25,2.54167 61.875,2.70312 61.4688,2.92188 L61.4688,2.375 C61.8854,2.19792 62.2708,2.06771 62.625,1.98438 C62.9896,1.89062 63.3281,1.83854 63.6406,1.82812 C64.4635,1.82812 65.0729,2.01562 65.4688,2.39062 C65.8542,2.76562 66.0469,3.27604 66.0469,3.92188 C66.0469,4.33854 65.9427,4.70833 65.7344,5.03125 C65.5365,5.34375 65.2448,5.55729 64.8594,5.67188 M70.875,6 C70.2708,6 69.7969,6.16667 69.4531,6.5 C69.1198,6.83333 68.9531,7.28906 68.9531,7.86719 C68.9531,8.44531 69.1198,8.90104 69.4531,9.23438 C69.7969,9.56771 70.2682,9.73438 70.8672,9.73438 C71.4661,9.73438 71.9375,9.56771 72.2812,9.23438 C72.6354,8.90104 72.8125,8.44792 72.8125,7.875 C72.8125,7.29167 72.6406,6.83333 72.2969,6.5 C71.9531,6.16667 71.4792,6 70.875,6 M69.7812,5.73438 C69.4375,5.59896 69.1562,5.38021 68.9375,5.07812 C68.6979,4.76562 68.5781,4.38021 68.5781,3.92188 C68.5781,3.27604 68.7839,2.76562 69.1953,2.39062 C69.6068,2.01562 70.1667,1.82812 70.875,1.82812 C71.5833,1.82812 72.1406,2.01562 72.5469,2.39062 C72.9531,2.76562 73.1562,3.27604 73.1562,3.92188 C73.1562,4.39062 73.0417,4.77604 72.8125,5.07812 C72.5729,5.39062 72.2917,5.60938 71.9688,5.73438 C72.3646,5.85938 72.6875,6.09375 72.9375,6.4375 C73.1979,6.79167 73.3281,7.22917 73.3281,7.75 C73.3281,8.52083 73.1198,9.11458 72.7031,9.53125 C72.276,9.94792 71.6667,10.1562 70.875,10.1562 C70.0833,10.1562 69.474,9.94792 69.0469,9.53125 C68.6198,9.11458 68.4062,8.52083 68.4062,7.75 C68.4062,7.22917 68.5365,6.79167 68.7969,6.4375 C69.0885,6.08333 69.4167,5.84896 69.7812,5.73438 M69.5859,2.71094 C69.2786,2.9974 69.125,3.40104 69.125,3.92188 C69.125,4.44271 69.2786,4.84896 69.5859,5.14062 C69.8932,5.43229 70.3229,5.57812 70.875,5.57812 C71.4167,5.57812 71.8438,5.43229 72.1562,5.14062 C72.4688,4.84896 72.625,4.44271 72.625,3.92188 C72.625,3.40104 72.4688,3 72.1562,2.71875 C71.8438,2.42708 71.4167,2.28125 70.875,2.28125 C70.3229,2.28125 69.8932,2.42448 69.5859,2.71094 M75.8438,9.82812 L75.8438,9.26562 C76.0938,9.41146 76.3438,9.52604 76.5938,9.60938 C76.8438,9.68229 77.0938,9.71875 77.3438,9.71875 C78.4062,9.71875 79.151,9.19792 79.5781,8.15625 C79.776,7.67708 79.8646,6.86979 79.8438,5.73438 C79.6667,6.13021 79.4375,6.4375 79.1562,6.65625 C78.7917,6.94792 78.3333,7.09375 77.7812,7.09375 C77.1042,7.09375 76.5417,6.85417 76.0938,6.375 C75.6458,5.90625 75.4219,5.30208 75.4219,4.5625 C75.4219,3.73958 75.6406,3.07812 76.0781,2.57812 C76.526,2.07812 77.099,1.82812 77.7969,1.82812 C78.6406,1.82812 79.2865,2.1875 79.7344,2.90625 C80.1823,3.61458 80.4062,4.64583 80.4062,6 C80.4062,7.4375 80.1302,8.48958 79.5781,9.15625 C79.0365,9.82292 78.3021,10.1562 77.375,10.1562 C77.125,10.1562 76.875,10.1302 76.625,10.0781 C76.375,10.026 76.1146,9.94271 75.8438,9.82812 M76.4844,6.05469 C76.8177,6.44531 77.2682,6.64062 77.8359,6.64062 C78.4036,6.64062 78.8542,6.44531 79.1875,6.05469 C79.5208,5.66406 79.6875,5.13021 79.6875,4.45312 C79.6875,3.77604 79.5208,3.24219 79.1875,2.85156 C78.8542,2.46094 78.4036,2.26562 77.8359,2.26562 C77.2682,2.26562 76.8177,2.46094 76.4844,2.85156 C76.151,3.24219 75.9844,3.77604 75.9844,4.45312 C75.9844,5.13021 76.151,5.66406 76.4844,6.05469 M84.8125,2.28125 C84.1562,2.28125 83.6667,2.59896 83.3438,3.23438 C83.0312,3.86979 82.875,4.78906 82.875,5.99219 C82.875,7.19531 83.0312,8.11979 83.3438,8.76562 C83.6667,9.40104 84.1562,9.71875 84.8125,9.71875 C85.4896,9.71875 85.9844,9.40104 86.2969,8.76562 C86.6198,8.11979 86.7812,7.19531 86.7812,5.99219 C86.7812,4.78906 86.6198,3.86979 86.2969,3.23438 C85.9844,2.59896 85.4896,2.28125 84.8125,2.28125 M84.8125,1.82812 C85.5833,1.82812 86.1927,2.14583 86.6406,2.78125 C87.099,3.41667 87.3281,4.48958 87.3281,6 C87.3281,7.51042 87.099,8.58333 86.6406,9.21875 C86.1927,9.84375 85.5833,10.1562 84.8125,10.1562 C84.0625,10.1562 83.4583,9.84375 83,9.21875 C82.5521,8.58333 82.3281,7.51042 82.3281,6 C82.3281,4.48958 82.5521,3.41667 83,2.78125 C83.4583,2.14583 84.0625,1.82812 84.8125,1.82812 M92.7969,5.67188 C93.224,5.77604 93.5625,6.01042 93.8125,6.375 C94.0521,6.71875 94.1719,7.15104 94.1719,7.67188 C94.1719,8.46354 93.9453,9.07552 93.4922,9.50781 C93.0391,9.9401 92.3125,10.1562 91.3125,10.1562 C90.9688,10.1562 90.6198,10.1042 90.2656,10 C89.9115,9.89583 89.5469,9.72917 89.1719,9.5 L89.1719,8.92188 C89.474,9.18229 89.8021,9.38021 90.1562,9.51562 C90.5104,9.65104 90.875,9.71875 91.25,9.71875 C92.0208,9.71875 92.6094,9.54167 93.0156,9.1875 C93.4219,8.84375 93.625,8.33854 93.625,7.67188 C93.625,7.13021 93.4375,6.70312 93.0625,6.39062 C92.6875,6.08854 92.1615,5.9375 91.4844,5.9375 L90.5469,5.9375 L90.5469,5.48438 L91.5312,5.48438 C92.1458,5.48438 92.6198,5.35938 92.9531,5.10938 C93.276,4.85938 93.4375,4.5 93.4375,4.03125 C93.4375,3.46875 93.2708,3.03646 92.9375,2.73438 C92.5938,2.43229 92.1094,2.28125 91.4844,2.28125 C91.1927,2.28125 90.875,2.33333 90.5312,2.4375 C90.1875,2.54167 89.8125,2.70312 89.4062,2.92188 L89.4062,2.375 C89.8229,2.19792 90.2083,2.06771 90.5625,1.98438 C90.9271,1.89062 91.2656,1.83854 91.5781,1.82812 C92.401,1.82812 93.0104,2.01562 93.4062,2.39062 C93.7917,2.76562 93.9844,3.27604 93.9844,3.92188 C93.9844,4.33854 93.8802,4.70833 93.6719,5.03125 C93.474,5.34375 93.1823,5.55729 92.7969,5.67188 M98.7812,2.28125 C98.125,2.28125 97.6354,2.59896 97.3125,3.23438 C97,3.86979 96.8438,4.78906 96.8438,5.99219 C96.8438,7.19531 97,8.11979 97.3125,8.76562 C97.6354,9.40104 98.125,9.71875 98.7812,9.71875 C99.4583,9.71875 99.9531,9.40104 100.266,8.76562 C100.589,8.11979 100.75,7.19531 100.75,5.99219 C100.75,4.78906 100.589,3.86979 100.266,3.23438 C99.9531,2.59896 99.4583,2.28125 98.7812,2.28125 M98.7812,1.82812 C99.5521,1.82812 100.161,2.14583 100.609,2.78125 C101.068,3.41667 101.297,4.48958 101.297,6 C101.297,7.51042 101.068,8.58333 100.609,9.21875 C100.161,9.84375 99.5521,10.1562 98.7812,10.1562 C98.0312,10.1562 97.4271,9.84375 96.9688,9.21875 C96.5208,8.58333 96.2969,7.51042 96.2969,6 C96.2969,4.48958 96.5208,3.41667 96.9688,2.78125 C97.4271,2.14583 98.0312,1.82812 98.7812,1.82812 M106.719,2.28125 L103.391,7.4375 L106.719,7.4375 L106.719,2.28125 M106.297,1.98438 L107.266,1.98438 L107.266,7.4375 L108.422,7.4375 L108.422,7.875 L107.266,7.875 L107.266,10 L106.719,10 L106.719,7.875 L102.828,7.875 L102.828,7.3125 L106.297,1.98438 M110.688,1.98438 L114.484,1.98438 L114.484,2.42188 L111.219,2.42188 L111.219,5.10938 C111.385,5.04688 111.547,5 111.703,4.96875 C111.859,4.9375 112.089,4.92188 112.391,4.92188 C113.214,4.92188 113.865,5.15104 114.344,5.60938 C114.823,6.05729 115.062,6.66146 115.062,7.42188 C115.062,8.28646 114.812,8.95833 114.312,9.4375 C113.823,9.91667 113.13,10.1562 112.234,10.1562 C111.943,10.1562 111.641,10.1302 111.328,10.0781 C111.016,10.026 110.693,9.95312 110.359,9.85938 L110.359,9.3125 C110.641,9.4375 110.932,9.53646 111.234,9.60938 C111.536,9.67188 111.854,9.70312 112.188,9.70312 C112.896,9.70312 113.464,9.5 113.891,9.09375 C114.318,8.6875 114.531,8.13021 114.531,7.42188 C114.531,6.78646 114.323,6.28646 113.906,5.92188 C113.49,5.54688 112.927,5.35938 112.219,5.35938 C112.073,5.35938 111.854,5.40104 111.562,5.48438 C111.281,5.55729 110.99,5.67708 110.688,5.84375 L110.688,1.98438 M119.734,2.28125 C119.078,2.28125 118.589,2.59896 118.266,3.23438 C117.953,3.86979 117.797,4.78906 117.797,5.99219 C117.797,7.19531 117.953,8.11979 118.266,8.76562 C118.589,9.40104 119.078,9.71875 119.734,9.71875 C120.411,9.71875 120.906,9.40104 121.219,8.76562 C121.542,8.11979 121.703,7.19531 121.703,5.99219 C121.703,4.78906 121.542,3.86979 121.219,3.23438 C120.906,2.59896 120.411,2.28125 119.734,2.28125 M119.734,1.82812 C120.505,1.82812 121.115,2.14583 121.562,2.78125 C122.021,3.41667 122.25,4.48958 122.25,6 C122.25,7.51042 122.021,8.58333 121.562,9.21875 C121.115,9.84375 120.505,10.1562 119.734,10.1562 C118.984,10.1562 118.38,9.84375 117.922,9.21875 C117.474,8.58333 117.25,7.51042 117.25,6 C117.25,4.48958 117.474,3.41667 117.922,2.78125 C118.38,2.14583 118.984,1.82812 119.734,1.82812 M127.672,2.28125 L124.344,7.4375 L127.672,7.4375 L127.672,2.28125 M127.25,1.98438 L128.219,1.98438 L128.219,7.4375 L129.375,7.4375 L129.375,7.875 L128.219,7.875 L128.219,10 L127.672,10 L127.672,7.875 L123.781,7.875 L123.781,7.3125 L127.25,1.98438 M131.141,1.98438 L136.016,1.98438 L136.016,2.4375 L133.109,10 L132.531,10 L135.453,2.42188 L131.141,2.42188 L131.141,1.98438 M138.547,9.5625 L143.109,9.5625 L143.109,10 L137.984,10 L137.984,9.4375 L139.984,7.35938 C140.474,6.85938 140.922,6.39583 141.328,5.96875 C141.693,5.57292 141.938,5.26562 142.062,5.04688 C142.188,4.82812 142.25,4.53646 142.25,4.17188 C142.25,3.55729 142.062,3.0625 141.688,2.6875 C141.417,2.41667 140.974,2.28125 140.359,2.28125 C139.995,2.28125 139.583,2.38542 139.125,2.59375 C138.917,2.6875 138.568,2.89062 138.078,3.20312 L138.078,2.64062 C138.286,2.49479 138.589,2.32812 138.984,2.14062 C139.443,1.94271 139.896,1.83854 140.344,1.82812 C141.031,1.82812 141.609,2.01042 142.078,2.375 C142.536,2.72917 142.766,3.3125 142.766,4.125 C142.766,4.45833 142.703,4.77083 142.578,5.0625 C142.432,5.40625 142.208,5.75521 141.906,6.10938 C141.812,6.21354 141.526,6.51042 141.047,7 L138.547,9.5625 M148.672,5.67188 C149.099,5.77604 149.438,6.01042 149.688,6.375 C149.927,6.71875 150.047,7.15104 150.047,7.67188 C150.047,8.46354 149.82,9.07552 149.367,9.50781 C148.914,9.9401 148.188,10.1562 147.188,10.1562 C146.844,10.1562 146.495,10.1042 146.141,10 C145.786,9.89583 145.422,9.72917 145.047,9.5 L145.047,8.92188 C145.349,9.18229 145.677,9.38021 146.031,9.51562 C146.385,9.65104 146.75,9.71875 147.125,9.71875 C147.896,9.71875 148.484,9.54167 148.891,9.1875 C149.297,8.84375 149.5,8.33854 149.5,7.67188 C149.5,7.13021 149.312,6.70312 148.938,6.39062 C148.562,6.08854 148.036,5.9375 147.359,5.9375 L146.422,5.9375 L146.422,5.48438 L147.406,5.48438 C148.021,5.48438 148.495,5.35938 148.828,5.10938 C149.151,4.85938 149.312,4.5 149.312,4.03125 C149.312,3.46875 149.146,3.03646 148.812,2.73438 C148.469,2.43229 147.984,2.28125 147.359,2.28125 C147.068,2.28125 146.75,2.33333 146.406,2.4375 C146.062,2.54167 145.688,2.70312 145.281,2.92188 L145.281,2.375 C145.698,2.19792 146.083,2.06771 146.438,1.98438 C146.802,1.89062 147.141,1.83854 147.453,1.82812 C148.276,1.82812 148.885,2.01562 149.281,2.39062 C149.667,2.76562 149.859,3.27604 149.859,3.92188 C149.859,4.33854 149.755,4.70833 149.547,5.03125 C149.349,5.34375 149.057,5.55729 148.672,5.67188 M152.672,9.82812 L152.672,9.26562 C152.922,9.41146 153.172,9.52604 153.422,9.60938 C153.672,9.68229 153.922,9.71875 154.172,9.71875 C155.234,9.71875 155.979,9.19792 156.406,8.15625 C156.604,7.67708 156.693,6.86979 156.672,5.73438 C156.495,6.13021 156.266,6.4375 155.984,6.65625 C155.62,6.94792 155.161,7.09375 154.609,7.09375 C153.932,7.09375 153.37,6.85417 152.922,6.375 C152.474,5.90625 152.25,5.30208 152.25,4.5625 C152.25,3.73958 152.469,3.07812 152.906,2.57812 C153.354,2.07812 153.927,1.82812 154.625,1.82812 C155.469,1.82812 156.115,2.1875 156.562,2.90625 C157.01,3.61458 157.234,4.64583 157.234,6 C157.234,7.4375 156.958,8.48958 156.406,9.15625 C155.865,9.82292 155.13,10.1562 154.203,10.1562 C153.953,10.1562 153.703,10.1302 153.453,10.0781 C153.203,10.026 152.943,9.94271 152.672,9.82812 M153.312,6.05469 C153.646,6.44531 154.096,6.64062 154.664,6.64062 C155.232,6.64062 155.682,6.44531 156.016,6.05469 C156.349,5.66406 156.516,5.13021 156.516,4.45312 C156.516,3.77604 156.349,3.24219 156.016,2.85156 C155.682,2.46094 155.232,2.26562 154.664,2.26562 C154.096,2.26562 153.646,2.46094 153.312,2.85156 C152.979,3.24219 152.812,3.77604 152.812,4.45312 C152.812,5.13021 152.979,5.66406 153.312,6.05469 M159.5,9.5625 L164.062,9.5625 L164.062,10 L158.938,10 L158.938,9.4375 L160.938,7.35938 C161.427,6.85938 161.875,6.39583 162.281,5.96875 C162.646,5.57292 162.891,5.26562 163.016,5.04688 C163.141,4.82812 163.203,4.53646 163.203,4.17188 C163.203,3.55729 163.016,3.0625 162.641,2.6875 C162.37,2.41667 161.927,2.28125 161.312,2.28125 C160.948,2.28125 160.536,2.38542 160.078,2.59375 C159.87,2.6875 159.521,2.89062 159.031,3.20312 L159.031,2.64062 C159.24,2.49479 159.542,2.32812 159.938,2.14062 C160.396,1.94271 160.849,1.83854 161.297,1.82812 C161.984,1.82812 162.562,2.01042 163.031,2.375 C163.49,2.72917 163.719,3.3125 163.719,4.125 C163.719,4.45833 163.656,4.77083 163.531,5.0625 C163.385,5.40625 163.161,5.75521 162.859,6.10938 C162.766,6.21354 162.479,6.51042 162,7 L159.5,9.5625"/>
</g>

<g fill="none" stroke="#000000" stroke-opacity="1" stroke-width="1" stroke-linecap="square" stroke-linejoin="bevel" transform="matrix(2,0,0,2,67.5262,86)"
font-family="sans" font-size="11" font-weight="100" font-style="normal" 
>
</g>

<g fill="none" stroke="#000000" stroke-opacity="1" stroke-width="1" stroke-linecap="square" stroke-linejoin="bevel" transform="matrix(2,0,0,2,67.5262,86)"
font-family="Sans Serif" font-size="9" font-weight="400" font-style="normal" 
>
</g>

<g fill="none" stroke="#000000" stroke-opacity="1" stroke-width="1" stroke-linecap="square" stroke-linejoin="bevel" transform="matrix(2,0,0,2,0.0024,167)"
font-family="Sans Serif" font-size="9" font-weight="400" font-style="normal" 
>
</g>

<g fill="none" stroke="#000000" stroke-opacity="1" stroke-width="1" stroke-linecap="square" stroke-linejoin="bevel" transform="matrix(2,0,0,2,0.0024,167)"
font-family="Sans Serif" font-size="9" font-weight="400" font-style="normal" 
>
</g>

<g fill="none" stroke="#000000" stroke-opacity="1" stroke-width="1" stroke-linecap="square" stroke-linejoin="bevel" transform="matrix(2,0,0,2,0.0024,167)"
font-family="Sans Serif" font-size="9" font-weight="400" font-style="normal" 
>
</g>

<g fill="none" stroke="#000000" stroke-opacity="1" stroke-width="1" stroke-linecap="square" stroke-linejoin="round" transform="matrix(2,0,0,2,0.0024,167)"
font-family="Sans Serif" font-size="9" font-weight="400" font-style="normal" 
>
<ellipse cx="453.52" cy="-34" rx="70.3444" ry="17.5"/>
</g>

<g fill="none" stroke="#000000" stroke-opacity="1" stroke-width="1" stroke-linecap="square" stroke-linejoin="bevel" transform="matrix(2,0,0,2,0.0024,167)"
font-family="Sans Serif" font-size="9" font-weight="400" font-style="normal" 
>
</g>

<g fill="none" stroke="#000000" stroke-opacity="1" stroke-width="1" stroke-linecap="square" stroke-linejoin="bevel" transform="matrix(2,0,0,2,813.652,86)"
font-family="Sans Serif" font-size="9" font-weight="400" font-style="normal" 
>
</g>

<g fill="none" stroke="#000000" stroke-opacity="1" stroke-width="1" stroke-linecap="square" stroke-linejoin="bevel" transform="matrix(2,0,0,2,813.652,86)"
font-family="sans" font-size="11" font-weight="100" font-style="normal" 
>
</g>

<g fill="#000000" fill-opacity="1" stroke="#000000" stroke-opacity="1" stroke-width="1" stroke-linecap="square" stroke-linejoin="round" transform="matrix(2,0,0,2,813.652,86)"
font-family="sans" font-size="11" font-weight="100" font-style="normal" 
>
<path vector-effect="none" fill-rule="nonzero" d="M2.96875,1.98438 L3.53125,1.98438 L0.734375,11.0156 L0.171875,11.0156 L2.96875,1.98438 M8.35938,4.15625 L8.35938,4.70312 C8.00521,4.50521 7.78646,4.39583 7.70312,4.375 C7.45312,4.32292 7.14062,4.29167 6.76562,4.28125 C6.20312,4.28125 5.76042,4.39062 5.4375,4.60938 C5.1875,4.79688 5.0625,5.11458 5.0625,5.5625 C5.0625,5.875 5.18229,6.11458 5.42188,6.28125 C5.66146,6.46875 6.01042,6.61458 6.46875,6.71875 L6.8125,6.78125 C7.38542,6.90625 7.81771,7.08333 8.10938,7.3125 C8.45312,7.58333 8.63021,7.92708 8.64062,8.34375 C8.64062,8.90625 8.47396,9.34896 8.14062,9.67188 C7.78646,9.99479 7.20833,10.1562 6.40625,10.1562 C5.96875,10.1562 5.63542,10.125 5.40625,10.0625 C5.125,9.98958 4.83333,9.89583 4.53125,9.78125 L4.53125,9.15625 C4.96875,9.40625 5.25,9.55208 5.375,9.59375 C5.72917,9.6875 6.08333,9.73438 6.4375,9.73438 C7.01042,9.73438 7.4375,9.61458 7.71875,9.375 C8,9.125 8.14062,8.80729 8.14062,8.42188 C8.14062,8.08854 8.04688,7.84896 7.85938,7.70312 C7.58854,7.48438 7.16146,7.30729 6.57812,7.17188 L6.23438,7.09375 C5.72396,6.96875 5.33854,6.80208 5.07812,6.59375 C4.74479,6.32292 4.57812,5.99479 4.57812,5.60938 C4.57812,4.98438 4.77865,4.53385 5.17969,4.25781 C5.58073,3.98177 6.07292,3.84375 6.65625,3.84375 C7.15625,3.84375 7.5,3.86979 7.6875,3.92188 C7.91667,3.98438 8.14062,4.0625 8.35938,4.15625 M10.6562,3.98438 L11.1562,3.98438 L11.1562,10 L10.6562,10 L10.6562,3.98438 M10.6562,1.64062 L11.1562,1.64062 L11.1562,2.3125 L10.6562,2.3125 L10.6562,1.64062 M18.0469,5.29688 C18.2344,4.80729 18.526,4.44271 18.9219,4.20312 C19.3073,3.96354 19.7604,3.84375 20.2812,3.84375 C20.8021,3.84375 21.2188,4.02604 21.5312,4.39062 C21.8542,4.75521 22.0156,5.41667 22.0156,6.375 L22.0156,10 L21.5312,10 L21.5312,6.40625 C21.5312,5.57292 21.4167,5.01042 21.1875,4.71875 C20.9583,4.42708 20.651,4.28125 20.2656,4.28125 C19.7135,4.28125 19.2292,4.44792 18.8125,4.78125 C18.3438,5.15625 18.1094,5.76042 18.1094,6.59375 L18.1094,10 L17.625,10 L17.625,6.40625 C17.625,5.60417 17.513,5.04948 17.2891,4.74219 C17.0651,4.4349 16.7552,4.28125 16.3594,4.28125 C15.8073,4.28125 15.3229,4.45312 14.9062,4.79688 C14.4375,5.16146 14.2031,5.76042 14.2031,6.59375 L14.2031,10 L13.7188,10 L13.7188,3.98438 L14.2031,3.98438 L14.2031,5.10938 C14.3802,4.71354 14.6562,4.40104 15.0312,4.17188 C15.3958,3.95312 15.849,3.84375 16.3906,3.84375 C16.7448,3.84375 17.0833,3.95833 17.4062,4.1875 C17.6562,4.375 17.8698,4.74479 18.0469,5.29688 M24.3594,7.60938 L24.3594,3.98438 L24.8438,3.98438 L24.8438,7.57812 C24.8438,8.35938 24.9688,8.90885 25.2188,9.22656 C25.4688,9.54427 25.8385,9.70312 26.3281,9.70312 C26.901,9.70312 27.3906,9.53125 27.7969,9.1875 C28.2031,8.84375 28.4062,8.24479 28.4062,7.39062 L28.4062,3.98438 L28.8906,3.98438 L28.8906,10 L28.4062,10 L28.4062,8.875 C28.2292,9.23958 27.9948,9.51562 27.7031,9.70312 C27.2865,9.99479 26.8229,10.1406 26.3125,10.1406 C25.7188,10.1406 25.2448,9.9375 24.8906,9.53125 C24.5365,9.13542 24.3594,8.49479 24.3594,7.60938 M31.3906,1.64062 L31.875,1.64062 L31.875,10 L31.3906,10 L31.3906,1.64062 M36.8438,6.60938 C36.0417,6.60938 35.4661,6.75 35.1172,7.03125 C34.7682,7.3125 34.5938,7.72396 34.5938,8.26562 C34.5938,8.79688 34.7396,9.17448 35.0312,9.39844 C35.3229,9.6224 35.6667,9.73438 36.0625,9.73438 C36.8125,9.73438 37.3542,9.41667 37.6875,8.78125 C38.0208,8.13542 38.1875,7.53125 38.1875,6.96875 L38.1875,6.60938 L36.8438,6.60938 M38.6875,6.5625 L38.6875,10 L38.1875,10 L38.1875,8.35938 C37.9167,9.16146 37.5521,9.67188 37.0938,9.89062 C36.7396,10.0677 36.3802,10.1562 36.0156,10.1562 C35.4219,10.1562 34.9531,9.99479 34.6094,9.67188 C34.2656,9.34896 34.0938,8.8776 34.0938,8.25781 C34.0938,7.63802 34.3177,7.14062 34.7656,6.76562 C35.2135,6.39062 35.9427,6.20312 36.9531,6.20312 L38.1875,6.20312 L38.1875,6.10938 C38.1875,5.57812 38.0312,5.14062 37.7188,4.79688 C37.4271,4.45312 36.9323,4.28125 36.2344,4.28125 C35.8906,4.28125 35.5417,4.34375 35.1875,4.46875 C34.9583,4.55208 34.6562,4.71875 34.2812,4.96875 L34.2812,4.4375 C34.6042,4.23958 34.9062,4.09896 35.1875,4.01562 C35.5833,3.90104 35.9635,3.84375 36.3281,3.84375 C37.0469,3.84375 37.6354,4.05729 38.0938,4.48438 C38.4896,4.84896 38.6875,5.54167 38.6875,6.5625 M41.6875,2.28125 L41.6875,3.98438 L43.7188,3.98438 L43.7188,4.40625 L41.6875,4.40625 L41.6875,8.01562 C41.6875,8.47396 41.7448,8.79688 41.8594,8.98438 C42.1094,9.38021 42.4688,9.57812 42.9375,9.57812 L43.7188,9.57812 L43.7188,10 L42.9531,10 C42.4635,10 42.0469,9.85677 41.7031,9.57031 C41.3594,9.28385 41.1875,8.76562 41.1875,8.01562 L41.1875,4.40625 L40.4688,4.40625 L40.4688,3.98438 L41.1875,3.98438 L41.1875,2.28125 L41.6875,2.28125 M50.1719,6.75 L50.1719,7.0625 L45.6094,7.0625 C45.6094,8.02083 45.7969,8.69792 46.1719,9.09375 C46.5885,9.52083 47.2031,9.73438 48.0156,9.73438 C48.2344,9.73438 48.5208,9.6875 48.875,9.59375 C49.2292,9.5 49.5833,9.35938 49.9375,9.17188 L49.9375,9.6875 C49.5833,9.84375 49.2214,9.96094 48.8516,10.0391 C48.4818,10.1172 48.1875,10.1562 47.9688,10.1562 C47.0417,10.1562 46.3438,9.90625 45.875,9.40625 C45.3646,8.875 45.1094,8.09375 45.1094,7.0625 C45.1094,5.98958 45.3385,5.1875 45.7969,4.65625 C46.276,4.11458 46.9427,3.84375 47.7969,3.84375 C48.5781,3.84375 49.1719,4.10417 49.5781,4.625 C49.974,5.16667 50.1719,5.875 50.1719,6.75 M49.6719,6.64062 C49.6719,5.79688 49.4792,5.18229 49.0938,4.79688 C48.7812,4.45312 48.349,4.28125 47.7969,4.28125 C47.2031,4.28125 46.7031,4.45833 46.2969,4.8125 C45.9219,5.14583 45.6979,5.75521 45.625,6.64062 L49.6719,6.64062 M56.25,5.35938 L56.25,1.64062 L56.7188,1.64062 L56.7188,10 L56.25,10 L56.25,8.64062 C56.0208,9.16146 55.7708,9.51562 55.5,9.70312 C55.1042,10.0052 54.724,10.1562 54.3594,10.1562 C53.651,10.1562 53.0599,9.86719 52.5859,9.28906 C52.112,8.71094 51.875,7.94792 51.875,7 C51.875,6.05208 52.112,5.28906 52.5859,4.71094 C53.0599,4.13281 53.651,3.84375 54.3594,3.84375 C54.724,3.84375 55.1042,3.98958 55.5,4.28125 C55.7708,4.47917 56.0208,4.83854 56.25,5.35938 M53.0156,4.90625 C52.599,5.32292 52.3906,6.02083 52.3906,7 C52.3906,7.97917 52.599,8.67708 53.0156,9.09375 C53.4323,9.51042 53.8698,9.71875 54.3281,9.71875 C54.776,9.71875 55.2083,9.51042 55.625,9.09375 C56.0312,8.67708 56.2344,7.97917 56.2344,7 C56.2344,6.02083 56.0312,5.32292 55.625,4.90625 C55.2083,4.48958 54.776,4.28125 54.3281,4.28125 C53.8698,4.28125 53.4323,4.48958 53.0156,4.90625 M63.5781,12.1719 L63.5781,12.5938 L57.8594,12.5938 L57.8594,12.1719 L63.5781,12.1719 M65.2344,2.28125 L65.2344,3.98438 L67.2656,3.98438 L67.2656,4.40625 L65.2344,4.40625 L65.2344,8.01562 C65.2344,8.47396 65.2917,8.79688 65.4062,8.98438 C65.6562,9.38021 66.0156,9.57812 66.4844,9.57812 L67.2656,9.57812 L67.2656,10 L66.5,10 C66.0104,10 65.5938,9.85677 65.25,9.57031 C64.9062,9.28385 64.7344,8.76562 64.7344,8.01562 L64.7344,4.40625 L64.0156,4.40625 L64.0156,3.98438 L64.7344,3.98438 L64.7344,2.28125 L65.2344,2.28125 M68.9688,7.60938 L68.9688,3.98438 L69.4531,3.98438 L69.4531,7.57812 C69.4531,8.35938 69.5781,8.90885 69.8281,9.22656 C70.0781,9.54427 70.4479,9.70312 70.9375,9.70312 C71.5104,9.70312 72,9.53125 72.4062,9.1875 C72.8125,8.84375 73.0156,8.24479 73.0156,7.39062 L73.0156,3.98438 L73.5,3.98438 L73.5,10 L73.0156,10 L73.0156,8.875 C72.8385,9.23958 72.6042,9.51562 72.3125,9.70312 C71.8958,9.99479 71.4323,10.1406 70.9219,10.1406 C70.3281,10.1406 69.8542,9.9375 69.5,9.53125 C69.1458,9.13542 68.9688,8.49479 68.9688,7.60938 M79.2656,4.40625 C79.1823,4.36458 79.0729,4.33333 78.9375,4.3125 C78.8125,4.29167 78.6615,4.28125 78.4844,4.28125 C77.8698,4.28125 77.3646,4.50521 76.9688,4.95312 C76.6458,5.31771 76.4844,5.94271 76.4844,6.82812 L76.4844,10 L76,10 L76,3.98438 L76.4844,3.98438 L76.4844,5.10938 C76.651,4.78646 76.8802,4.51562 77.1719,4.29688 C77.5677,3.99479 78.0365,3.84375 78.5781,3.84375 C78.724,3.84375 78.849,3.84896 78.9531,3.85938 C79.0573,3.85938 79.1615,3.86979 79.2656,3.89062 L79.2656,4.40625 M81.0312,2.28125 L81.0312,3.98438 L83.0625,3.98438 L83.0625,4.40625 L81.0312,4.40625 L81.0312,8.01562 C81.0312,8.47396 81.0885,8.79688 81.2031,8.98438 C81.4531,9.38021 81.8125,9.57812 82.2812,9.57812 L83.0625,9.57812 L83.0625,10 L82.2969,10 C81.8073,10 81.3906,9.85677 81.0469,9.57031 C80.7031,9.28385 80.5312,8.76562 80.5312,8.01562 L80.5312,4.40625 L79.8125,4.40625 L79.8125,3.98438 L80.5312,3.98438 L80.5312,2.28125 L81.0312,2.28125 M84.8281,1.64062 L85.3125,1.64062 L85.3125,10 L84.8281,10 L84.8281,1.64062 M92.5625,6.75 L92.5625,7.0625 L88,7.0625 C88,8.02083 88.1875,8.69792 88.5625,9.09375 C88.9792,9.52083 89.5938,9.73438 90.4062,9.73438 C90.625,9.73438 90.9115,9.6875 91.2656,9.59375 C91.6198,9.5 91.974,9.35938 92.3281,9.17188 L92.3281,9.6875 C91.974,9.84375 91.612,9.96094 91.2422,10.0391 C90.8724,10.1172 90.5781,10.1562 90.3594,10.1562 C89.4323,10.1562 88.7344,9.90625 88.2656,9.40625 C87.7552,8.875 87.5,8.09375 87.5,7.0625 C87.5,5.98958 87.7292,5.1875 88.1875,4.65625 C88.6667,4.11458 89.3333,3.84375 90.1875,3.84375 C90.9688,3.84375 91.5625,4.10417 91.9688,4.625 C92.3646,5.16667 92.5625,5.875 92.5625,6.75 M92.0625,6.64062 C92.0625,5.79688 91.8698,5.18229 91.4844,4.79688 C91.1719,4.45312 90.7396,4.28125 90.1875,4.28125 C89.5938,4.28125 89.0938,4.45833 88.6875,4.8125 C88.3125,5.14583 88.0885,5.75521 88.0156,6.64062 L92.0625,6.64062"/>
</g>

<g fill="none" stroke="#000000" stroke-opacity="1" stroke-width="1" stroke-linecap="square" stroke-linejoin="bevel" transform="matrix(2,0,0,2,813.652,86)"
font-family="sans" font-size="11" font-weight="100" font-style="normal" 
>
</g>

<g fill="none" stroke="#000000" stroke-opacity="1" stroke-width="1" stroke-linecap="square" stroke-linejoin="bevel" transform="matrix(2,0,0,2,813.652,86)"
font-family="Sans Serif" font-size="9" font-weight="400" font-style="normal" 
>
</g>

<g fill="none" stroke="#000000" stroke-opacity="1" stroke-width="1" stroke-linecap="square" stroke-linejoin="bevel" transform="matrix(2,0,0,2,0.0024,167)"
font-family="Sans Serif" font-size="9" font-weight="400" font-style="normal" 
>
</g>

<g fill="none" stroke="#000000" stroke-opacity="1" stroke-width="1" stroke-linecap="square" stroke-linejoin="bevel" transform="matrix(2,0,0,2,0.0024,167)"
font-family="Sans Serif" font-size="9" font-weight="400" font-style="normal" 
>
</g>

<g fill="none" stroke="#000000" stroke-opacity="1" stroke-width="1" stroke-linecap="square" stroke-linejoin="bevel" transform="matrix(2,0,0,2,0.0024,167)"
font-family="Sans Serif" font-size="9" font-weight="400" font-style="normal" 
>
</g>

<g fill="none" stroke="#000000" stroke-opacity="1" stroke-width="1" stroke-linecap="square" stroke-linejoin="round" transform="matrix(2,0,0,2,0.0024,167)"
font-family="Sans Serif" font-size="9" font-weight="400" font-style="normal" 
>
<rect x="240.68" y="-83" width="134" height="75"/>
</g>

<g fill="none" stroke="#000000" stroke-opacity="1" stroke-width="1" stroke-linecap="square" stroke-linejoin="bevel" transform="matrix(2,0,0,2,0.0024,167)"
font-family="Sans Serif" font-size="9" font-weight="400" font-style="normal" 
>
</g>

<g fill="none" stroke="#000000" stroke-opacity="1" stroke-width="1" stroke-linecap="square" stroke-linejoin="bevel" transform="matrix(2,0,0,2,568.237,11)"
font-family="Sans Serif" font-size="9" font-weight="400" font-style="normal" 
>
</g>

<g fill="none" stroke="#000000" stroke-opacity="1" stroke-width="1" stroke-linecap="square" stroke-linejoin="bevel" transform="matrix(2,0,0,2,568.237,11)"
font-family="sans" font-size="11" font-weight="100" font-style="normal" 
>
</g>

<g fill="#000000" fill-opacity="1" stroke="#000000" stroke-opacity="1" stroke-width="1" stroke-linecap="square" stroke-linejoin="round" transform="matrix(2,0,0,2,568.237,11)"
font-family="sans" font-size="11" font-weight="100" font-style="normal" 
>
<path vector-effect="none" fill-rule="nonzero" d="M5.57812,5.29688 C5.76562,4.80729 6.05729,4.44271 6.45312,4.20312 C6.83854,3.96354 7.29167,3.84375 7.8125,3.84375 C8.33333,3.84375 8.75,4.02604 9.0625,4.39062 C9.38542,4.75521 9.54688,5.41667 9.54688,6.375 L9.54688,10 L9.0625,10 L9.0625,6.40625 C9.0625,5.57292 8.94792,5.01042 8.71875,4.71875 C8.48958,4.42708 8.18229,4.28125 7.79688,4.28125 C7.24479,4.28125 6.76042,4.44792 6.34375,4.78125 C5.875,5.15625 5.64062,5.76042 5.64062,6.59375 L5.64062,10 L5.15625,10 L5.15625,6.40625 C5.15625,5.60417 5.04427,5.04948 4.82031,4.74219 C4.59635,4.4349 4.28646,4.28125 3.89062,4.28125 C3.33854,4.28125 2.85417,4.45312 2.4375,4.79688 C1.96875,5.16146 1.73438,5.76042 1.73438,6.59375 L1.73438,10 L1.25,10 L1.25,3.98438 L1.73438,3.98438 L1.73438,5.10938 C1.91146,4.71354 2.1875,4.40104 2.5625,4.17188 C2.92708,3.95312 3.38021,3.84375 3.92188,3.84375 C4.27604,3.84375 4.61458,3.95833 4.9375,4.1875 C5.1875,4.375 5.40104,4.74479 5.57812,5.29688 M13.9844,10.5625 C13.7656,11.0938 13.5312,11.4635 13.2812,11.6719 C12.9479,11.9427 12.625,12.0781 12.3125,12.0781 L11.5781,12.0781 L11.5781,11.6562 L12.2031,11.6562 C12.4635,11.6562 12.6927,11.5729 12.8906,11.4062 C13.1406,11.1875 13.349,10.8698 13.5156,10.4531 L13.6875,10 L11.2969,3.98438 L11.8281,3.98438 L13.9531,9.34375 L16.0938,3.98438 L16.625,3.98438 L13.9844,10.5625 M18.9688,2.28125 L18.9688,3.98438 L21,3.98438 L21,4.40625 L18.9688,4.40625 L18.9688,8.01562 C18.9688,8.47396 19.026,8.79688 19.1406,8.98438 C19.3906,9.38021 19.75,9.57812 20.2188,9.57812 L21,9.57812 L21,10 L20.2344,10 C19.7448,10 19.3281,9.85677 18.9844,9.57031 C18.6406,9.28385 18.4688,8.76562 18.4688,8.01562 L18.4688,4.40625 L17.75,4.40625 L17.75,3.98438 L18.4688,3.98438 L18.4688,2.28125 L18.9688,2.28125 M22.7031,7.60938 L22.7031,3.98438 L23.1875,3.98438 L23.1875,7.57812 C23.1875,8.35938 23.3125,8.90885 23.5625,9.22656 C23.8125,9.54427 24.1823,9.70312 24.6719,9.70312 C25.2448,9.70312 25.7344,9.53125 26.1406,9.1875 C26.5469,8.84375 26.75,8.24479 26.75,7.39062 L26.75,3.98438 L27.2344,3.98438 L27.2344,10 L26.75,10 L26.75,8.875 C26.5729,9.23958 26.3385,9.51562 26.0469,9.70312 C25.6302,9.99479 25.1667,10.1406 24.6562,10.1406 C24.0625,10.1406 23.5885,9.9375 23.2344,9.53125 C22.8802,9.13542 22.7031,8.49479 22.7031,7.60938 M33,4.40625 C32.9167,4.36458 32.8073,4.33333 32.6719,4.3125 C32.5469,4.29167 32.3958,4.28125 32.2188,4.28125 C31.6042,4.28125 31.099,4.50521 30.7031,4.95312 C30.3802,5.31771 30.2188,5.94271 30.2188,6.82812 L30.2188,10 L29.7344,10 L29.7344,3.98438 L30.2188,3.98438 L30.2188,5.10938 C30.3854,4.78646 30.6146,4.51562 30.9062,4.29688 C31.3021,3.99479 31.7708,3.84375 32.3125,3.84375 C32.4583,3.84375 32.5833,3.84896 32.6875,3.85938 C32.7917,3.85938 32.8958,3.86979 33,3.89062 L33,4.40625 M34.7656,2.28125 L34.7656,3.98438 L36.7969,3.98438 L36.7969,4.40625 L34.7656,4.40625 L34.7656,8.01562 C34.7656,8.47396 34.8229,8.79688 34.9375,8.98438 C35.1875,9.38021 35.5469,9.57812 36.0156,9.57812 L36.7969,9.57812 L36.7969,10 L36.0312,10 C35.5417,10 35.125,9.85677 34.7812,9.57031 C34.4375,9.28385 34.2656,8.76562 34.2656,8.01562 L34.2656,4.40625 L33.5469,4.40625 L33.5469,3.98438 L34.2656,3.98438 L34.2656,2.28125 L34.7656,2.28125 M38.5625,1.64062 L39.0469,1.64062 L39.0469,10 L38.5625,10 L38.5625,1.64062 M46.2969,6.75 L46.2969,7.0625 L41.7344,7.0625 C41.7344,8.02083 41.9219,8.69792 42.2969,9.09375 C42.7135,9.52083 43.3281,9.73438 44.1406,9.73438 C44.3594,9.73438 44.6458,9.6875 45,9.59375 C45.3542,9.5 45.7083,9.35938 46.0625,9.17188 L46.0625,9.6875 C45.7083,9.84375 45.3464,9.96094 44.9766,10.0391 C44.6068,10.1172 44.3125,10.1562 44.0938,10.1562 C43.1667,10.1562 42.4688,9.90625 42,9.40625 C41.4896,8.875 41.2344,8.09375 41.2344,7.0625 C41.2344,5.98958 41.4635,5.1875 41.9219,4.65625 C42.401,4.11458 43.0677,3.84375 43.9219,3.84375 C44.7031,3.84375 45.2969,4.10417 45.7031,4.625 C46.099,5.16667 46.2969,5.875 46.2969,6.75 M45.7969,6.64062 C45.7969,5.79688 45.6042,5.18229 45.2188,4.79688 C44.9062,4.45312 44.474,4.28125 43.9219,4.28125 C43.3281,4.28125 42.8281,4.45833 42.4219,4.8125 C42.0469,5.14583 41.8229,5.75521 41.75,6.64062 L45.7969,6.64062"/>
</g>

<g fill="none" stroke="#000000" stroke-opacity="1" stroke-width="1" stroke-linecap="square" stroke-linejoin="bevel" transform="matrix(2,0,0,2,568.237,11)"
font-family="sans" font-size="11" font-weight="100" font-style="normal" 
>
</g>

<g fill="none" stroke="#000000" stroke-opacity="1" stroke-width="1" stroke-linecap="square" stroke-linejoin="bevel" transform="matrix(2,0,0,2,568.237,11)"
font-family="Sans Serif" font-size="9" font-weight="400" font-style="normal" 
>
</g>

<g fill="none" stroke="#000000" stroke-opacity="1" stroke-width="1" stroke-linecap="square" stroke-linejoin="bevel" transform="matrix(2,0,0,2,0.0024,167)"
font-family="Sans Serif" font-size="9" font-weight="400" font-style="normal" 
>
</g>

<g fill="none" stroke="#000000" stroke-opacity="1" stroke-width="1" stroke-linecap="square" stroke-linejoin="bevel" transform="matrix(2,0,0,2,0.0024,167)"
font-family="Sans Serif" font-size="9" font-weight="400" font-style="normal" 
>
</g>

<g fill="none" stroke="#000000" stroke-opacity="1" stroke-width="1" stroke-linecap="square" stroke-linejoin="bevel" transform="matrix(2,0,0,2,0.0024,167)"
font-family="Sans Serif" font-size="9" font-weight="400" font-style="normal" 
>
</g>

<g fill="none" stroke="#000000" stroke-opacity="1" stroke-width="1" stroke-linecap="square" stroke-linejoin="round" transform="matrix(2,0,0,2,0.0024,167)"
font-family="Sans Serif" font-size="9" font-weight="400" font-style="normal" 
>
<path vector-effect="none" fill-rule="evenodd" d="M366.77,-34 C368.54,-34 370.32,-34 372.11,-34 "/>
</g>

<g fill="none" stroke="#000000" stroke-opacity="1" stroke-width="1" stroke-linecap="square" stroke-linejoin="bevel" transform="matrix(2,0,0,2,0.0024,167)"
font-family="Sans Serif" font-size="9" font-weight="400" font-style="normal" 
>
</g>

<g fill="none" stroke="#000000" stroke-opacity="1" stroke-width="1" stroke-linecap="square" stroke-linejoin="bevel" transform="matrix(2,0,0,2,0.0024,167)"
font-family="Sans Serif" font-size="9" font-weight="400" font-style="normal" 
>
</g>

<g fill="#000000" fill-opacity="1" stroke="#000000" stroke-opacity="1" stroke-width="1" stroke-linecap="square" stroke-linejoin="round" transform="matrix(2,0,0,2,0.0024,167)"
font-family="Sans Serif" font-size="9" font-weight="400" font-style="normal" 
>
<path vector-effect="none" fill-rule="evenodd" d="M372.11,-34 L372.11,-30.402 L382.39,-34 L372.11,-37.598 L372.11,-34"/>
</g>

<g fill="none" stroke="#000000" stroke-opacity="1" stroke-width="1" stroke-linecap="square" stroke-linejoin="bevel" transform="matrix(2,0,0,2,0.0024,167)"
font-family="Sans Serif" font-size="9" font-weight="400" font-style="normal" 
>
</g>

<g fill="none" stroke="#000000" stroke-opacity="1" stroke-width="1" stroke-linecap="square" stroke-linejoin="bevel" transform="matrix(2,0,0,2,0.0024,167)"
font-family="Sans Serif" font-size="9" font-weight="400" font-style="normal" 
>
</g>

<g fill="none" stroke="#000000" stroke-opacity="1" stroke-width="1" stroke-linecap="square" stroke-linejoin="bevel" transform="matrix(2,0,0,2,0.0024,167)"
font-family="Sans Serif" font-size="9" font-weight="400" font-style="normal" 
>
</g>

<g fill="none" stroke="#000000" stroke-opacity="1" stroke-width="1" stroke-linecap="square" stroke-linejoin="bevel" transform="matrix(2,0,0,2,0.0024,167)"
font-family="Sans Serif" font-size="9" font-weight="400" font-style="normal" 
>
</g>

<g fill="none" stroke="#000000" stroke-opacity="1" stroke-width="1" stroke-linecap="square" stroke-linejoin="round" transform="matrix(2,0,0,2,0.0024,167)"
font-family="Sans Serif" font-size="9" font-weight="400" font-style="normal" 
>
<path vector-effect="none" fill-rule="evenodd" d="M232.93,-34 C234.73,-34 236.52,-34 238.3,-34 "/>
</g>

<g fill="none" stroke="#000000" stroke-opacity="1" stroke-width="1" stroke-linecap="square" stroke-linejoin="bevel" transform="matrix(2,0,0,2,0.0024,167)"
font-family="Sans Serif" font-size="9" font-weight="400" font-style="normal" 
>
</g>

<g fill="none" stroke="#000000" stroke-opacity="1" stroke-width="1" stroke-linecap="square" stroke-linejoin="bevel" transform="matrix(2,0,0,2,0.0024,167)"
font-family="Sans Serif" font-size="9" font-weight="400" font-style="normal" 
>
</g>

<g fill="#000000" fill-opacity="1" stroke="#000000" stroke-opacity="1" stroke-width="1" stroke-linecap="square" stroke-linejoin="round" transform="matrix(2,0,0,2,0.0024,167)"
font-family="Sans Serif" font-size="9" font-weight="400" font-style="normal" 
>
<path vector-effect="none" fill-rule="evenodd" d="M238.3,-34 L238.3,-30.5 L248.3,-34 L238.3,-37.5 L238.3,-34"/>
</g>

<g fill="none" stroke="#000000" stroke-opacity="1" stroke-width="1" stroke-linecap="square" stroke-linejoin="bevel" transform="matrix(2,0,0,2,0.0024,167)"
font-family="Sans Serif" font-size="9" font-weight="400" font-style="normal" 
>
</g>

<g fill="none" stroke="#000000" stroke-opacity="1" stroke-width="1" stroke-linecap="square" stroke-linejoin="bevel" transform="matrix(1,0,0,1,0,0)"
font-family="Sans Serif" font-size="9" font-weight="400" font-style="normal" 
>
</g>
</g>
</svg>
